<svg width="34" height="29" viewBox="0 0 34 29" fill="none" xmlns="http://www.w3.org/2000/svg">
<circle cx="19.5" cy="14.5" r="13.5" stroke="white" stroke-width="2"/>
<path d="M7.46529 19.0869C7.3376 19.0869 7.02106 19.151 6.89698 19.0734C6.7639 18.9902 6.63069 18.8631 6.46699 18.8449C6.3455 18.8314 6.50565 19.0328 6.5993 19.0328C6.69853 19.0328 6.79775 19.0328 6.89698 19.0328" stroke="#0E1621" stroke-width="3" stroke-linecap="round"/>
<path d="M6.43693 21.3872C6.51461 21.3624 6.57084 21.3107 6.63539 21.2609C6.8815 21.0712 7.13175 20.8887 7.38862 20.7137C7.65694 20.5308 7.92709 20.35 8.19898 20.1724C8.33089 20.0863 8.60303 19.8581 8.78834 19.9169C8.99924 19.9837 8.62582 20.4232 8.59139 20.4686C8.19237 20.9955 7.7643 21.495 7.33901 22.0006C6.90247 22.5197 6.46137 23.0556 6.17082 23.674C6.11702 23.7885 6.11218 23.8843 6.11218 24.0063C6.11218 24.1276 6.16424 24.0659 6.22344 23.9777C6.35926 23.7753 6.46854 23.5563 6.5993 23.3508C6.82418 22.9972 7.094 22.681 7.38712 22.3825C7.63049 22.1347 7.94613 21.9062 8.13434 21.6082C8.18238 21.5322 8.19374 21.4438 8.23807 21.3662C8.26718 21.3153 8.27608 21.2489 8.30573 21.1933C8.3858 21.0432 8.4882 20.9082 8.56883 20.7588C8.61941 20.6651 8.66199 20.444 8.75977 20.3829C8.80461 20.3549 8.73761 20.4867 8.71918 20.5363C8.62874 20.7794 8.52335 21.0175 8.41247 21.2519C8.07614 21.9631 7.68468 22.6454 7.37208 23.3688C7.18638 23.7986 7.10941 24.2682 7.00824 24.7234C6.93514 25.0524 6.8158 25.379 6.8158 25.7187C6.8158 25.7744 6.78509 25.9448 6.8158 25.9878C6.85623 26.0444 6.87135 25.8603 6.9 25.7969C7.0362 25.4955 7.20553 25.2112 7.36757 24.9234C7.63297 24.4519 7.97522 23.998 8.18395 23.4981C8.3647 23.0652 8.47314 22.5956 8.5989 22.145C8.6778 21.8623 8.81841 21.5281 8.81841 21.2279C8.81841 21.211 8.79031 21.3225 8.77932 21.3451C8.67055 21.5691 8.58739 21.8019 8.48464 22.0292C8.20313 22.6519 7.97893 23.2945 7.74795 23.9371C7.64971 24.2104 7.58238 24.4665 7.54348 24.7535C7.51807 24.9408 7.43585 25.1199 7.39614 25.3052C7.36711 25.4407 7.36625 25.5808 7.34352 25.7172C7.31844 25.8676 7.32998 26.025 7.32998 26.1773" stroke="#0E1621" stroke-width="3" stroke-linecap="round"/>
<path d="M10.2257 21.1166C10.0069 21.7365 9.86148 22.3828 9.66192 23.0095C9.40783 23.8073 9.12227 24.5926 8.96131 25.4165C8.88927 25.7853 8.81848 26.1531 8.81848 26.5291" stroke="#0E1621" stroke-width="3" stroke-linecap="round"/>
<path d="M6.66571 21.9237L0.938069 12.271L12.3933 12.271L6.66571 21.9237Z" fill="white"/>
</svg>
