<svg width="44" height="44" viewBox="0 0 44 44" fill="none" xmlns="http://www.w3.org/2000/svg">
<circle cx="21.7817" cy="14.521" r="8.5756" stroke="white"/>
<circle cx="21.7814" cy="21.7814" r="21.2814" stroke="white"/>
<path d="M11.0045 24.3355C11.2619 23.4064 12.3163 22.9579 13.1641 23.4169L15.9677 24.9346C16.2009 25.0609 16.4528 25.1492 16.7139 25.1963L21.3376 26.0307C21.6312 26.0837 21.9319 26.0837 22.2255 26.0307L26.8492 25.1963C27.1102 25.1492 27.3621 25.0609 27.5954 24.9346L30.3989 23.4169C31.2467 22.9579 32.3011 23.4064 32.5586 24.3355L33.8575 29.0235C33.9302 29.2856 33.9302 29.5625 33.8575 29.8246L32.1923 35.8345C32.0508 36.3452 31.6502 36.7434 31.1387 36.8819L22.1734 39.3085C21.9168 39.378 21.6463 39.378 21.3896 39.3085L12.4244 36.8819C11.9128 36.7434 11.5123 36.3452 11.3708 35.8345L9.7055 29.8246C9.63288 29.5625 9.63288 29.2856 9.7055 29.0235L11.0045 24.3355Z" stroke="white"/>
</svg>
