<svg width="29" height="29" viewBox="0 0 29 29" fill="none" xmlns="http://www.w3.org/2000/svg">
<path d="M28.5 14.2689C28.5 21.8657 22.2396 28.0378 14.5 28.0378C6.76041 28.0378 0.5 21.8657 0.5 14.2689C0.5 6.6721 6.76041 0.5 14.5 0.5C22.2396 0.5 28.5 6.6721 28.5 14.2689Z" stroke="white"/>
<path d="M24.5 14.2689C24.5 15.4801 23.537 16.7024 21.6955 17.6516C19.8798 18.5876 17.3366 19.1813 14.5 19.1813C11.6634 19.1813 9.12022 18.5876 7.30447 17.6516C5.46297 16.7024 4.5 15.4801 4.5 14.2689C4.5 13.0578 5.46297 11.8355 7.30447 10.8862C9.12022 9.95029 11.6634 9.35657 14.5 9.35657C17.3366 9.35657 19.8798 9.95029 21.6955 10.8862C23.537 11.8355 24.5 13.0578 24.5 14.2689Z" stroke="white"/>
<path d="M20 11.3167C20 13.2189 18.433 14.7609 16.5 14.7609C14.567 14.7609 13 13.2189 13 11.3167C13 9.41451 14.567 9.34863 16.5 9.34863C18.433 9.34863 20 9.41451 20 11.3167Z" fill="white"/>
</svg>
