<svg width="29" height="30" viewBox="0 0 29 30" fill="none" xmlns="http://www.w3.org/2000/svg">
<path d="M28.5 14.761C28.5 22.6455 22.2236 29.0219 14.5 29.0219C6.77638 29.0219 0.5 22.6455 0.5 14.761C0.5 6.8764 6.77638 0.5 14.5 0.5C22.2236 0.5 28.5 6.8764 28.5 14.761Z" stroke="white"/>
<path d="M8.779 21.9204L11.648 8.35441H15.163C15.999 8.35441 16.7147 8.46841 17.31 8.69641C17.918 8.91174 18.3803 9.24741 18.697 9.70341C19.0263 10.1594 19.191 10.7484 19.191 11.4704C19.191 12.0911 19.0643 12.6357 18.811 13.1044C18.5577 13.5604 18.203 13.9404 17.747 14.2444C17.291 14.5357 16.7527 14.7384 16.132 14.8524V14.9474C16.7527 15.1121 17.272 15.4224 17.69 15.8784C18.108 16.3344 18.317 16.9424 18.317 17.7024C18.317 18.6271 18.089 19.4061 17.633 20.0394C17.1897 20.6601 16.5753 21.1287 15.79 21.4454C15.0173 21.7621 14.1243 21.9204 13.111 21.9204H8.779ZM13.168 20.4764C13.89 20.4764 14.498 20.3687 14.992 20.1534C15.4987 19.9381 15.8787 19.6214 16.132 19.2034C16.398 18.7854 16.531 18.2851 16.531 17.7024C16.531 17.0944 16.3347 16.5814 15.942 16.1634C15.5493 15.7454 14.8843 15.5364 13.947 15.5364H11.819L10.774 20.4764H13.168ZM14.346 14.1304C14.916 14.1304 15.429 14.0417 15.885 13.8644C16.3537 13.6871 16.7273 13.4211 17.006 13.0664C17.2847 12.6991 17.424 12.2367 17.424 11.6794C17.424 11.0841 17.234 10.6281 16.854 10.3114C16.474 9.98208 15.8407 9.81741 14.954 9.81741H13.035L12.123 14.1304H14.346Z" fill="white"/>
</svg>
