<svg width="29" height="30" viewBox="0 0 29 30" fill="none" xmlns="http://www.w3.org/2000/svg">
<path d="M28.5 14.761C28.5 22.6455 22.2236 29.0219 14.5 29.0219C6.77638 29.0219 0.5 22.6455 0.5 14.761C0.5 6.8764 6.77638 0.5 14.5 0.5C22.2236 0.5 28.5 6.8764 28.5 14.761Z" stroke="white"/>
<circle cx="10" cy="8" r="2.5" stroke="white"/>
<circle cx="10" cy="8" r="2.5" stroke="white"/>
<circle cx="10" cy="8" r="2.5" stroke="white"/>
<path d="M26.4255 13.3324C26.4255 14.7131 25.3062 15.8324 23.9255 15.8324C22.5448 15.8324 21.4255 14.7131 21.4255 13.3324C21.4255 11.9517 22.5448 10.8324 23.9255 10.8324C25.3062 10.8324 26.4255 11.9517 26.4255 13.3324Z" stroke="white"/>
<path d="M26.4255 13.3324C26.4255 14.7131 25.3062 15.8324 23.9255 15.8324C22.5448 15.8324 21.4255 14.7131 21.4255 13.3324C21.4255 11.9517 22.5448 10.8324 23.9255 10.8324C25.3062 10.8324 26.4255 11.9517 26.4255 13.3324Z" stroke="white"/>
<path d="M26.4255 13.3324C26.4255 14.7131 25.3062 15.8324 23.9255 15.8324C22.5448 15.8324 21.4255 14.7131 21.4255 13.3324C21.4255 11.9517 22.5448 10.8324 23.9255 10.8324C25.3062 10.8324 26.4255 11.9517 26.4255 13.3324Z" stroke="white"/>
<path d="M16.5 22.5C16.5 24.7091 14.7091 26.5 12.5 26.5C10.2909 26.5 8.5 24.7091 8.5 22.5C8.5 20.2909 10.2909 18.5 12.5 18.5C14.7091 18.5 16.5 20.2909 16.5 22.5Z" stroke="white"/>
<path d="M16.5 22.5C16.5 24.7091 14.7091 26.5 12.5 26.5C10.2909 26.5 8.5 24.7091 8.5 22.5C8.5 20.2909 10.2909 18.5 12.5 18.5C14.7091 18.5 16.5 20.2909 16.5 22.5Z" stroke="white"/>
<path d="M16.5 22.5C16.5 24.7091 14.7091 26.5 12.5 26.5C10.2909 26.5 8.5 24.7091 8.5 22.5C8.5 20.2909 10.2909 18.5 12.5 18.5C14.7091 18.5 16.5 20.2909 16.5 22.5Z" stroke="white"/>
<line x1="14.8613" y1="19.2296" x2="21.5177" y2="14.792" stroke="white" stroke-width="0.5"/>
<line x1="11.4042" y1="18.6023" x2="9.75541" y2="10.7741" stroke="white" stroke-width="0.5"/>
<line y1="-0.25" x2="10.4185" y2="-0.25" transform="matrix(-0.936404 -0.350925 0.495113 -0.868828 21.756 13)" stroke="white" stroke-width="0.5"/>
<line x1="15.8613" y1="19.7843" x2="22.5177" y2="15.3467" stroke="white" stroke-width="0.5"/>
<line x1="12.6102" y1="18.8583" x2="10.7554" y2="10.0515" stroke="white" stroke-width="0.5"/>
<line x1="21.4635" y1="11.8135" x2="12.0059" y2="8.26918" stroke="white" stroke-width="0.5"/>
</svg>
