<svg width="32" height="31" viewBox="0 0 32 31" fill="none" xmlns="http://www.w3.org/2000/svg">
<path d="M28.5876 14.2689C28.5876 21.8657 22.3272 28.0378 14.5876 28.0378C6.84806 28.0378 0.587646 21.8657 0.587646 14.2689C0.587646 6.67207 6.84806 0.499969 14.5876 0.499969C22.3272 0.499969 28.5876 6.67207 28.5876 14.2689Z" stroke="white"/>
<path d="M2.147 17.8731L13.5385 3.74764L27.0439 17.2531L22.5867 16.5103L22.4394 16.4857L22.3019 16.5446L19.0352 17.9447L15.7542 16.0698L15.5352 15.9447L15.3019 16.0446L12.0028 17.4585L8.70285 16.0443L8.48628 15.9514L8.27468 16.0572L5.35612 17.5165L2.147 17.8731Z" fill="white" stroke="white"/>
</svg>
