<svg width="29" height="30" viewBox="0 0 29 30" fill="none" xmlns="http://www.w3.org/2000/svg">
<path d="M28.5 14.761C28.5 22.6455 22.2236 29.0219 14.5 29.0219C6.77638 29.0219 0.5 22.6455 0.5 14.761C0.5 6.8764 6.77638 0.5 14.5 0.5C22.2236 0.5 28.5 6.8764 28.5 14.761Z" stroke="white"/>
<path d="M3.50019 18L27.0002 15L19.5002 21.5L8.07341 21.6515L3.50019 18Z" fill="white"/>
<path d="M11.8228 14.9022L14.5 14.5L16.5002 14.5L18.5002 17L11.1777 17.24L11.8228 14.9022Z" fill="white"/>
<path d="M2.96143 21.8513C3.37912 21.8134 3.68561 21.3578 4.13644 21.4246C4.4189 21.4665 4.59313 21.6863 4.84265 21.7972C4.96211 21.8503 5.08658 21.8534 5.20627 21.9054C5.47242 22.0212 6.05156 22.0373 6.26108 21.8183C6.54238 21.5242 6.74965 21.2563 7.17465 21.2563C7.74032 21.2563 8.20992 21.3473 8.67722 21.665C9.19307 22.0158 9.91759 22.0178 10.5104 21.9295C11.2284 21.8225 11.6194 21.3912 12.2413 21.1001C12.5999 20.9322 12.9822 20.9457 13.3592 20.8536C13.718 20.766 14.0594 20.6822 14.4321 20.7214C14.9796 20.779 15.5527 21.0387 16.0759 21.2022C16.3136 21.2765 16.4393 21.5353 16.6679 21.6199C16.8895 21.702 17.2377 21.6378 17.4703 21.635C18.0615 21.6278 18.3212 21.3379 18.7565 21.0099C19.3002 20.6001 20.0614 20.6556 20.7159 20.7274C21.6618 20.8312 22.9872 21.2262 23.5407 20.1745C23.9008 19.4903 24.9668 19.5569 25.6323 19.4953C26.0497 19.4567 26.9867 19.3324 27.3572 19.5794" stroke="white" stroke-linecap="round"/>
</svg>
