<svg width="29" height="30" viewBox="0 0 29 30" fill="none" xmlns="http://www.w3.org/2000/svg">
<path d="M28.5 14.761C28.5 22.6455 22.2236 29.0219 14.5 29.0219C6.77638 29.0219 0.5 22.6455 0.5 14.761C0.5 6.8764 6.77638 0.5 14.5 0.5C22.2236 0.5 28.5 6.8764 28.5 14.761Z" stroke="white"/>
<path d="M6.80169 20.6902L9.67069 7.12418H12.0647L13.3757 18.2012H13.4517L19.4747 7.12418H22.0777L19.2657 20.6902H17.5557L19.2657 12.6342C19.3924 12.0769 19.5064 11.5575 19.6077 11.0762C19.7217 10.5949 19.823 10.1579 19.9117 9.76518C20.013 9.37252 20.1017 9.04319 20.1777 8.77718H20.1397L13.6037 20.6902H12.2547L10.8107 8.79618H10.7347C10.7094 9.04952 10.665 9.39152 10.6017 9.82219C10.5384 10.2402 10.4624 10.6899 10.3737 11.1712C10.2977 11.6399 10.2154 12.0959 10.1267 12.5392L8.39769 20.6902H6.80169Z" fill="white"/>
</svg>
