<svg width="29" height="30" viewBox="0 0 29 30" fill="none" xmlns="http://www.w3.org/2000/svg">
<path d="M28.5 14.761C28.5 22.6455 22.2236 29.0219 14.5 29.0219C6.77638 29.0219 0.5 22.6455 0.5 14.761C0.5 6.8764 6.77638 0.5 14.5 0.5C22.2236 0.5 28.5 6.8764 28.5 14.761Z" stroke="white"/>
<path d="M19.7926 12.5H18.1193C18.0204 12.0187 17.8472 11.5959 17.5998 11.2315C17.3569 10.8672 17.06 10.5613 16.7092 10.3139C16.3628 10.062 15.9782 9.87311 15.5554 9.74716C15.1326 9.62121 14.6918 9.55824 14.233 9.55824C13.3963 9.55824 12.6384 9.76965 11.9592 10.1925C11.2844 10.6153 10.7469 11.2383 10.3466 12.0614C9.95076 12.8846 9.75284 13.8944 9.75284 15.0909C9.75284 16.2874 9.95076 17.2972 10.3466 18.1204C10.7469 18.9435 11.2844 19.5665 11.9592 19.9893C12.6384 20.4122 13.3963 20.6236 14.233 20.6236C14.6918 20.6236 15.1326 20.5606 15.5554 20.4347C15.9782 20.3087 16.3628 20.122 16.7092 19.8746C17.06 19.6228 17.3569 19.3146 17.5998 18.9503C17.8472 18.5814 18.0204 18.1586 18.1193 17.6818H19.7926C19.6667 18.388 19.4373 19.02 19.1044 19.5778C18.7715 20.1355 18.3577 20.6101 17.8629 21.0014C17.3681 21.3883 16.8126 21.6829 16.1964 21.8853C15.5846 22.0877 14.9302 22.1889 14.233 22.1889C13.0545 22.1889 12.0064 21.901 11.0888 21.3253C10.1712 20.7495 9.44922 19.9309 8.92294 18.8693C8.39666 17.8078 8.13352 16.5483 8.13352 15.0909C8.13352 13.6335 8.39666 12.3741 8.92294 11.3125C9.44922 10.2509 10.1712 9.43229 11.0888 8.85653C12.0064 8.28078 13.0545 7.9929 14.233 7.9929C14.9302 7.9929 15.5846 8.0941 16.1964 8.29652C16.8126 8.49893 17.3681 8.79581 17.8629 9.18714C18.3577 9.57398 18.7715 10.0463 19.1044 10.604C19.4373 11.1573 19.6667 11.7893 19.7926 12.5Z" fill="white"/>
</svg>
