<svg width="29" height="30" viewBox="0 0 29 30" fill="none" xmlns="http://www.w3.org/2000/svg">
<path d="M28.5 14.761C28.5 22.6455 22.2236 29.0219 14.5 29.0219C6.77638 29.0219 0.5 22.6455 0.5 14.761C0.5 6.8764 6.77638 0.5 14.5 0.5C22.2236 0.5 28.5 6.8764 28.5 14.761Z" stroke="white"/>
<path d="M8 19.5L23.2707 9.6332" stroke="white" stroke-width="2.5" stroke-linecap="round"/>
<path d="M3.27417 18.6591L12.1088 18.0468L7.74774 20.6726L3.27417 18.6591Z" fill="white"/>
<path d="M9.5 12.5L16.5 12L12.5 14.5L7 13.5L9.5 12.5Z" fill="white"/>
<path d="M17.5 21L19.5001 14L16.0001 16.5L15.3079 23.0183L17.5 21Z" fill="white"/>
</svg>
