<svg width="21" height="12" viewBox="0 0 21 12" fill="none" xmlns="http://www.w3.org/2000/svg">
<mask id="path-1-inside-1_294_108" fill="white">
<path d="M6 6C6 9.31371 3.31371 12 1.08467e-10 12C2 11 5 9.31371 5 6C5 2.68629 2.5 1.5 1.08467e-10 0C3.31371 0 6 2.68629 6 6Z"/>
</mask>
<path d="M6 6C6 9.31371 3.31371 12 1.08467e-10 12C2 11 5 9.31371 5 6C5 2.68629 2.5 1.5 1.08467e-10 0C3.31371 0 6 2.68629 6 6Z" fill="white"/>
<path d="M1.08467e-10 12L-0.447214 11.1056L1.08467e-10 13V12ZM1.08467e-10 0V-1H-3.61032L-0.514496 0.857493L1.08467e-10 0ZM5 6C5 8.76142 2.76142 11 1.08467e-10 11V13C3.86599 13 7 9.86599 7 6H5ZM0.447214 12.8944C1.45525 12.3904 2.82496 11.6628 3.94283 10.5887C5.08178 9.49446 6 7.99937 6 6H4C4 7.31434 3.41822 8.31925 2.55717 9.14654C1.67504 9.99408 0.544746 10.6096 -0.447214 11.1056L0.447214 12.8944ZM6 6C6 4.03695 5.23806 2.66015 4.12934 1.59781C3.08706 0.599121 1.69539 -0.148956 0.514496 -0.857493L-0.514496 0.857493C0.804609 1.64896 1.91294 2.24402 2.74566 3.04191C3.51194 3.77614 4 4.64934 4 6H6ZM1.08467e-10 1C2.76142 1 5 3.23858 5 6H7C7 2.13401 3.86599 -1 1.08467e-10 -1V1Z" fill="white" mask="url(#path-1-inside-1_294_108)"/>
<line x1="5" y1="5.5" x2="21" y2="5.5" stroke="white"/>
</svg>
