<svg width="35" height="27" viewBox="0 0 35 27" fill="none" xmlns="http://www.w3.org/2000/svg">
<line y1="-0.5" x2="15.2971" y2="-0.5" transform="matrix(0.720578 0.693374 -0.720578 0.693374 22.9772 8)" stroke="#B5B2B2"/>
<line y1="-0.5" x2="15.2971" y2="-0.5" transform="matrix(-0.720578 0.693374 -0.720578 -0.693374 34 7)" stroke="#B5B2B2"/>
<path d="M19.9792 3.6653V22.9254C19.9792 23.7073 19.1223 24.1867 18.456 23.7777L8.88125 17.8999C8.58497 17.718 8.40442 17.3953 8.40442 17.0476V10.0554C8.40442 9.72515 8.56743 9.41622 8.84002 9.22985L14.539 5.33338L18.4381 2.82437C19.1036 2.39613 19.9792 2.87393 19.9792 3.6653Z" stroke="#B5B2B2" stroke-width="2"/>
<path d="M3 9.31818H8.87257V17.5454H3C1.89543 17.5454 1 16.65 1 15.5454V11.3182C1 10.2136 1.89543 9.31818 3 9.31818Z" stroke="#B5B2B2" stroke-width="2"/>
</svg>
